HIERARCHY
ROOT hip
{
	OFFSET 0.000000 0.000000 0.000000 
	CHANNELS 6 Xposition Yposition Zposition Zrotation Yrotation Xrotation
	JOINT abdomen
	{
		OFFSET 0.000000 20.688101 -0.731520 
		CHANNELS 3 Zrotation Xrotation Yrotation
		JOINT chest
		{
			OFFSET 0.000000 11.704300 -0.487680 
			CHANNELS 3 Zrotation Xrotation Yrotation
			JOINT neck
			{
				OFFSET 0.000000 22.189400 -2.194560 
				CHANNELS 3 Zrotation Xrotation Yrotation
				JOINT head
				{
					OFFSET -0.243840 7.071330 1.219200 
					CHANNELS 3 Zrotation Xrotation Yrotation
					End Site
					{
						OFFSET 1.000000 0.000000 0.000000 
					}
				}
			}
			JOINT rCollar
			{
				OFFSET -2.682240 19.263399 -4.876800 
				CHANNELS 3 Zrotation Xrotation Yrotation
				JOINT rShldr
				{
					OFFSET -8.778240 -1.950730 1.463040 
					CHANNELS 3 Zrotation Xrotation Yrotation
					JOINT rForeArm
					{
						OFFSET -28.174200 -1.711500 0.487680 
						CHANNELS 3 Zrotation Xrotation Yrotation
						JOINT rHand
						{
							OFFSET -22.587900 0.773209 7.071360 
							CHANNELS 3 Zrotation Xrotation Yrotation
							JOINT rThumb1
							{
								OFFSET -1.219200 -0.487915 3.413760 
								CHANNELS 3 Zrotation Xrotation Yrotation
								JOINT rThumb2
								{
									OFFSET -3.370350 -0.524490 3.413760 
									CHANNELS 3 Zrotation Xrotation Yrotation
									End Site
									{
										OFFSET -1.782710 -1.182140 1.430490 
									}
								}
							}
							JOINT rIndex1
							{
								OFFSET -7.759470 0.938293 5.608320 
								CHANNELS 3 Zrotation Xrotation Yrotation
								JOINT rIndex2
								{
									OFFSET -2.540570 -0.884171 1.565380 
									CHANNELS 3 Zrotation Xrotation Yrotation
									End Site
									{
										OFFSET -1.625190 -0.234802 1.165020 
									}
								}
							}
							JOINT rMid1
							{
								OFFSET -8.247140 1.182130 3.413760 
								CHANNELS 3 Zrotation Xrotation Yrotation
								JOINT rMid2
								{
									OFFSET -3.101650 -0.590103 1.064700 
									CHANNELS 3 Zrotation Xrotation Yrotation
									End Site
									{
										OFFSET -2.485470 -0.328903 0.837420 
									}
								}
							}
							JOINT rRing1
							{
								OFFSET -8.828220 0.546677 1.516780 
								CHANNELS 3 Zrotation Xrotation Yrotation
								JOINT rRing2
								{
									OFFSET -2.609340 -0.819778 -0.019849 
									CHANNELS 3 Zrotation Xrotation Yrotation
									End Site
									{
										OFFSET -2.338420 -0.294052 0.168128 
									}
								}
							}
							JOINT rPinky1
							{
								OFFSET -8.272020 -0.047791 -0.458400 
								CHANNELS 3 Zrotation Xrotation Yrotation
								JOINT rPinky2
								{
									OFFSET -1.827340 -0.647385 -0.700984 
									CHANNELS 3 Zrotation Xrotation Yrotation
									End Site
									{
										OFFSET -1.692250 -0.517670 -0.607171 
									}
								}
							}
						}
					}
				}
			}
			JOINT lCollar
			{
				OFFSET 2.682240 19.263399 -4.876800 
				CHANNELS 3 Zrotation Xrotation Yrotation
				JOINT lShldr
				{
					OFFSET 8.778240 -1.950730 1.463040 
					CHANNELS 3 Zrotation Xrotation Yrotation
					JOINT lForeArm
					{
						OFFSET 28.174200 -1.711500 0.487680 
						CHANNELS 3 Zrotation Xrotation Yrotation
						JOINT lHand
						{
							OFFSET 22.587900 0.773209 7.071360 
							CHANNELS 3 Zrotation Xrotation Yrotation
							JOINT lThumb1
							{
								OFFSET 1.219200 -0.487915 3.413760 
								CHANNELS 3 Zrotation Xrotation Yrotation
								JOINT lThumb2
								{
									OFFSET 3.370350 -0.524490 3.413760 
									CHANNELS 3 Zrotation Xrotation Yrotation
									End Site
									{
										OFFSET 1.782710 -1.182140 1.430490 
									}
								}
							}
							JOINT lIndex1
							{
								OFFSET 7.759470 0.938293 5.608320 
								CHANNELS 3 Zrotation Xrotation Yrotation
								JOINT lIndex2
								{
									OFFSET 2.540570 -0.884171 1.565380 
									CHANNELS 3 Zrotation Xrotation Yrotation
									End Site
									{
										OFFSET 1.625190 -0.234802 1.165020 
									}
								}
							}
							JOINT lMid1
							{
								OFFSET 8.247140 1.182130 3.413760 
								CHANNELS 3 Zrotation Xrotation Yrotation
								JOINT lMid2
								{
									OFFSET 3.101650 -0.590103 1.064700 
									CHANNELS 3 Zrotation Xrotation Yrotation
									End Site
									{
										OFFSET 2.485470 -0.328903 0.837420 
									}
								}
							}
							JOINT lRing1
							{
								OFFSET 8.828220 0.546677 1.516780 
								CHANNELS 3 Zrotation Xrotation Yrotation
								JOINT lRing2
								{
									OFFSET 2.609340 -0.819778 -0.019849 
									CHANNELS 3 Zrotation Xrotation Yrotation
									End Site
									{
										OFFSET 2.338420 -0.294052 0.168128 
									}
								}
							}
							JOINT lPinky1
							{
								OFFSET 8.272020 -0.047791 -0.458400 
								CHANNELS 3 Zrotation Xrotation Yrotation
								JOINT lPinky2
								{
									OFFSET 1.827340 -0.647385 -0.700984 
									CHANNELS 3 Zrotation Xrotation Yrotation
									End Site
									{
										OFFSET 1.692250 -0.517670 -0.607171 
									}
								}
							}
						}
					}
				}
			}
		}
	}
	JOINT rButtock
	{
		OFFSET -8.778240 4.350840 1.219200 
		CHANNELS 3 Zrotation Xrotation Yrotation
		JOINT rThigh
		{
			OFFSET 0.000000 -1.706870 -2.194560 
			CHANNELS 3 Zrotation Xrotation Yrotation
			JOINT rShin
			{
				OFFSET 0.000000 -36.819901 0.731520 
				CHANNELS 3 Zrotation Xrotation Yrotation
				JOINT rFoot
				{
					OFFSET 0.731520 -45.110401 -5.120640 
					CHANNELS 3 Zrotation Xrotation Yrotation
					End Site
					{
						OFFSET -1.122100 -3.699640 12.103000 
					}
				}
			}
		}
	}
	JOINT lButtock
	{
		OFFSET 8.778240 4.350840 1.219200 
		CHANNELS 3 Zrotation Xrotation Yrotation
		JOINT lThigh
		{
			OFFSET 0.000000 -1.706870 -2.194560 
			CHANNELS 3 Zrotation Xrotation Yrotation
			JOINT lShin
			{
				OFFSET 0.000000 -36.819901 0.731520 
				CHANNELS 3 Zrotation Xrotation Yrotation
				JOINT lFoot
				{
					OFFSET -0.731520 -45.110401 -5.120640 
					CHANNELS 3 Zrotation Xrotation Yrotation
					End Site
					{
						OFFSET 1.122100 -3.699640 12.103000 
					}
				}
			}
		}
	}
}
MOTION
Frames: 8
Frame Time: 0.016709
8.656520 72.527397 22.373699 -3.361100 -26.900499 -22.348301 3.200870 38.367802 2.192580 1.590780 -9.064060 0.765558 -7.811070 0.068290 -3.637080 13.131100 16.233101 -7.375920 -0.000000 -0.000000 -0.000000 62.899200 -17.928499 -13.718100 -14.335900 -7.232250 26.225401 -0.046287 -6.095450 -0.859842 -0.000000 0.000000 -0.000000 -0.000000 0.000000 -0.000000 -0.000000 0.000000 -0.000000 7.730910 5.474880 0.417314 -0.000000 0.000000 -0.000000 2.905540 0.965183 0.102902 -0.000000 0.000000 -0.000000 10.278600 0.731801 0.025912 -0.000000 0.000000 -0.000000 2.221670 -0.733487 -0.208920 -0.000000 -0.000000 -0.000000 -31.632601 -31.131901 8.096560 11.869300 -5.391600 -21.306700 -0.071264 3.175510 -0.435409 -0.000000 -0.000000 -0.000000 -0.000000 -0.000000 -0.000000 -0.000000 -0.000000 -0.000000 -7.730910 5.474880 -0.417314 -0.000000 -0.000000 -0.000000 -2.905540 0.965183 -0.102902 -0.000000 -0.000000 -0.000000 -10.278600 0.731801 -0.025912 -0.000000 -0.000000 -0.000000 -2.221670 -0.733487 0.208920 -0.000000 0.000000 -0.000000 -15.461900 -17.066000 18.028700 -1.735030 67.453598 2.329110 -12.114500 -7.790240 -38.262901 0.000000 0.000000 0.000000 14.381900 -30.224501 34.468399 1.290820 62.454601 -1.526550 0.551655 -1.703200 1.418920 
8.923660 72.556099 24.458300 -2.908700 -25.325100 -22.585699 4.236600 39.633999 -0.303755 2.662650 -9.397710 0.356175 -8.504270 0.934152 -3.338780 12.266300 15.693400 -6.538540 0.000000 0.000000 -0.000000 61.977501 -17.225500 -15.469200 -14.904500 -7.711290 27.385000 -0.083914 -8.214580 -1.162520 -0.000000 -0.000000 -0.000000 -0.000000 -0.000000 -0.000000 -0.000000 -0.000000 -0.000000 7.730910 5.474880 0.417314 -0.000000 -0.000000 -0.000000 2.905540 0.965183 0.102902 -0.000000 -0.000000 -0.000000 10.278600 0.731801 0.025912 -0.000000 -0.000000 -0.000000 2.221670 -0.733487 -0.208920 0.000000 0.000000 -0.000000 -36.107201 -36.228600 0.469966 9.634950 -3.961350 -17.059099 0.217630 15.506700 -2.216710 0.000000 0.000000 0.000000 0.000000 0.000000 0.000000 0.000000 0.000000 0.000000 -7.730910 5.474880 -0.417314 0.000000 0.000000 0.000000 -2.905540 0.965183 -0.102902 0.000000 0.000000 0.000000 -10.278600 0.731801 -0.025912 0.000000 0.000000 0.000000 -2.221670 -0.733487 0.208920 -0.000000 0.000000 -0.000000 -11.262500 -21.685900 17.766600 -0.765891 55.233101 1.628860 -19.097401 -18.207001 -39.077599 0.000000 0.000000 0.000000 11.979500 -29.034599 32.889400 1.277850 62.669701 -1.630910 0.543259 -2.262530 0.337431 
9.888410 73.513496 27.205999 0.686700 -21.709999 -24.735399 3.413280 39.223301 -2.867620 3.849850 -9.199070 -0.282768 -8.829250 1.544720 -3.052650 11.713800 15.544900 -5.890940 0.000000 0.000000 -0.000000 61.349800 -17.840799 -16.994801 -15.191000 -7.954750 27.986601 -0.075203 -7.927120 -1.120990 -0.000000 -0.000000 -0.000000 -0.000000 -0.000000 -0.000000 -0.000000 -0.000000 -0.000000 7.730910 5.474880 0.417314 -0.000000 -0.000000 -0.000000 2.905540 0.965183 0.102902 -0.000000 -0.000000 -0.000000 10.278600 0.731801 0.025912 -0.000000 -0.000000 -0.000000 2.221670 -0.733487 -0.208920 0.000000 0.000000 -0.000000 -40.981800 -35.839699 -7.092110 8.636490 -3.328530 -15.306800 0.623560 21.070000 -3.114930 0.000000 0.000000 0.000000 0.000000 0.000000 0.000000 0.000000 0.000000 0.000000 -7.730910 5.474880 -0.417314 0.000000 0.000000 0.000000 -2.905540 0.965183 -0.102902 0.000000 0.000000 0.000000 -10.278600 0.731801 -0.025912 0.000000 0.000000 0.000000 -2.221670 -0.733487 0.208920 -0.000000 0.000000 -0.000000 -9.289260 -27.536600 15.816100 -0.399641 47.320099 1.368990 -23.218599 -24.538500 -39.839699 0.000000 0.000000 0.000000 7.944190 -28.108700 31.223700 1.173170 61.465199 -1.583920 0.416699 -2.261980 -0.981229 
11.027900 74.010101 28.907301 3.910000 -17.285400 -23.532700 0.451982 37.141102 -5.325150 5.172810 -8.467060 -1.148090 -8.781820 1.899730 -2.778220 11.457800 15.791100 -5.428570 0.000000 0.000000 -0.000000 60.913502 -19.754200 -18.340099 -15.211200 -7.973230 28.026800 -0.030590 -5.232810 -0.737118 -0.000000 -0.000000 -0.000000 -0.000000 -0.000000 -0.000000 -0.000000 -0.000000 -0.000000 7.730910 5.474880 0.417314 -0.000000 -0.000000 -0.000000 2.905540 0.965183 0.102902 -0.000000 -0.000000 -0.000000 10.278600 0.731801 0.025912 -0.000000 -0.000000 -0.000000 2.221670 -0.733487 -0.208920 0.000000 0.000000 -0.000000 -43.888199 -30.166300 -13.269000 9.037660 -3.563660 -16.029301 0.533345 19.893999 -2.920710 0.000000 0.000000 -0.000000 0.000000 0.000000 -0.000000 0.000000 0.000000 -0.000000 -7.730910 5.474880 -0.417314 0.000000 0.000000 -0.000000 -2.905540 0.965183 -0.102902 0.000000 0.000000 -0.000000 -10.278600 0.731801 -0.025912 0.000000 0.000000 -0.000000 -2.221670 -0.733487 0.208920 -0.000000 0.000000 -0.000000 -10.297200 -34.675400 11.883900 -0.331699 43.716900 1.232180 -24.055799 -26.848600 -39.326401 0.000000 0.000000 0.000000 2.256190 -27.448299 29.450001 1.001780 58.840801 -1.409880 0.210620 -1.701290 -2.535720 
10.935600 74.886703 29.294500 0.691100 -15.956500 -20.396099 0.017885 36.404999 -7.881680 5.974030 -8.126640 -1.843110 -8.689240 1.962460 -2.383600 10.929200 15.971800 -4.645020 0.000000 0.000000 -0.000000 60.383301 -22.155500 -19.290701 -15.070800 -7.852420 27.732700 -0.012140 -3.055240 -0.429926 -0.000000 -0.000000 -0.000000 -0.000000 -0.000000 -0.000000 -0.000000 -0.000000 -0.000000 7.730910 5.474880 0.417314 -0.000000 -0.000000 -0.000000 2.905540 0.965183 0.102902 -0.000000 -0.000000 -0.000000 10.278600 0.731801 0.025912 -0.000000 -0.000000 -0.000000 2.221670 -0.733487 -0.208920 0.000000 0.000000 -0.000000 -45.522400 -25.003700 -18.295200 9.867470 -4.072540 -17.535801 0.338931 16.683201 -2.409880 0.000000 0.000000 -0.000000 0.000000 0.000000 -0.000000 0.000000 0.000000 -0.000000 -7.730910 5.474880 -0.417314 0.000000 0.000000 -0.000000 -2.905540 0.965183 -0.102902 0.000000 0.000000 -0.000000 -10.278600 0.731801 -0.025912 0.000000 0.000000 -0.000000 -2.221670 -0.733487 0.208920 -0.000000 0.000000 -0.000000 -7.894350 -40.494801 10.985500 -0.290433 40.706600 0.983548 -20.402500 -23.480801 -37.221199 0.000000 0.000000 0.000000 -0.445404 -26.125099 27.858299 0.876254 56.550598 -1.271200 0.091422 -0.908822 -3.709780 
10.991700 76.058601 30.308800 -0.791500 -14.501900 -19.915300 2.335530 36.991299 -10.667300 6.236030 -8.178430 -2.370300 -8.545860 1.732600 -1.868920 10.127800 16.083599 -3.540130 0.000000 0.000000 -0.000000 59.787399 -25.062300 -19.863800 -14.765100 -7.589100 27.105499 -0.002956 -1.394860 -0.196144 0.000000 -0.000000 0.000000 0.000000 -0.000000 0.000000 0.000000 -0.000000 0.000000 7.730910 5.474880 0.417314 0.000000 -0.000000 0.000000 2.905540 0.965183 0.102902 0.000000 -0.000000 0.000000 10.278600 0.731801 0.025912 0.000000 -0.000000 0.000000 2.221670 -0.733487 -0.208920 0.000000 0.000000 -0.000000 -46.361401 -20.470301 -22.482201 11.082400 -4.836000 -19.831699 0.148951 11.431900 -1.625070 0.000000 0.000000 -0.000000 0.000000 0.000000 -0.000000 0.000000 0.000000 -0.000000 -7.730910 5.474880 -0.417314 0.000000 0.000000 -0.000000 -2.905540 0.965183 -0.102902 0.000000 0.000000 -0.000000 -10.278600 0.731801 -0.025912 0.000000 0.000000 -0.000000 -2.221670 -0.733487 0.208920 -0.000000 0.000000 -0.000000 -0.775382 -44.894798 13.804600 -0.288995 38.288300 0.628219 -13.093500 -14.100800 -34.627201 0.000000 0.000000 0.000000 -0.119998 -24.138201 26.490801 0.785411 54.594501 -1.156800 0.057598 0.114008 -4.504590 
11.226300 77.781601 31.430201 -1.570400 -11.994100 -20.447701 2.795460 37.994301 -13.423500 6.744020 -7.854270 -3.049280 -8.011550 1.031030 -1.457130 9.215020 16.069500 -2.633550 0.000000 -0.000000 -0.000000 59.396801 -27.731400 -20.363400 -14.474000 -7.343050 26.513399 -0.002815 -1.617360 -0.227433 0.000000 0.000000 0.000000 0.000000 0.000000 0.000000 0.000000 0.000000 0.000000 7.730910 5.474880 0.417314 0.000000 0.000000 0.000000 2.905540 0.965183 0.102902 0.000000 0.000000 0.000000 10.278600 0.731801 0.025912 0.000000 0.000000 0.000000 2.221670 -0.733487 -0.208920 0.000000 -0.000000 -0.000000 -46.884998 -16.616800 -27.510300 11.965500 -5.420670 -21.548500 0.079492 7.694780 -1.089590 -0.000000 -0.000000 -0.000000 -0.000000 -0.000000 -0.000000 -0.000000 -0.000000 -0.000000 -7.730910 5.474880 -0.417314 -0.000000 -0.000000 -0.000000 -2.905540 0.965183 -0.102902 -0.000000 -0.000000 -0.000000 -10.278600 0.731801 -0.025912 -0.000000 -0.000000 -0.000000 -2.221670 -0.733487 0.208920 -0.000000 0.000000 -0.000000 3.315170 -48.157501 14.598400 -0.299413 36.956501 0.464108 -9.860330 -9.438130 -34.032200 0.000000 0.000000 0.000000 -2.582320 -20.864201 23.870800 0.643755 51.077301 -1.037020 0.149823 1.572440 -4.982180 
12.005900 79.410599 32.719601 -0.855700 -7.745900 -21.439800 1.478450 39.404301 -16.206699 7.513990 -7.154330 -3.878260 -7.079930 -0.142296 -1.148710 8.196660 15.931800 -1.926940 -0.000000 -0.000000 -0.000000 59.233501 -30.169201 -20.771299 -14.198700 -7.115090 25.956400 -0.017904 -3.722680 -0.524192 0.000000 0.000000 0.000000 0.000000 0.000000 0.000000 0.000000 0.000000 0.000000 7.730910 5.474880 0.417314 0.000000 0.000000 0.000000 2.905540 0.965183 0.102902 0.000000 0.000000 0.000000 10.278600 0.731801 0.025912 0.000000 0.000000 0.000000 2.221670 -0.733487 -0.208920 -0.000000 -0.000000 -0.000000 -47.132599 -13.426500 -33.389900 12.551200 -5.842390 -22.682199 0.040908 5.475970 -0.772777 -0.000000 -0.000000 -0.000000 -0.000000 -0.000000 -0.000000 -0.000000 -0.000000 -0.000000 -7.730910 5.474880 -0.417314 -0.000000 -0.000000 -0.000000 -2.905540 0.965183 -0.102902 -0.000000 -0.000000 -0.000000 -10.278600 0.731801 -0.025912 -0.000000 -0.000000 -0.000000 -2.221670 -0.733487 0.208920 -0.000000 0.000000 -0.000000 3.756270 -50.370300 12.882600 -0.293461 36.712002 0.472656 -10.151500 -9.701250 -34.457802 0.000000 0.000000 0.000000 -7.407260 -16.108299 20.228800 0.466420 45.998901 -0.928014 0.354849 3.467400 -5.145890 
